<?xml version="1.0" encoding="UTF-8"?> <svg xmlns="http://www.w3.org/2000/svg" width="192" height="212" viewBox="0 0 192 212" fill="none"> <path d="M176.833 165.386C158.335 189.565 133.629 201.825 103.405 201.825C77.0813 201.825 54.8706 192.025 37.3933 172.707C20.5533 153.995 12.016 131.171 12.016 104.869C12.016 79.3713 20.8226 57.1619 38.1986 38.8659C56.0706 20.0913 78.0106 10.5713 103.405 10.5713C133.787 10.5713 158.993 23.4646 178.315 48.8899L178.516 49.1513H191.52L190.876 48.1379C182.295 34.6259 171.231 23.6059 157.979 15.3779C142.179 5.63661 123.923 0.699265 103.719 0.699265C75.6013 0.699265 52.272 10.2793 32.4053 29.9833C11.3693 50.9126 0.702637 76.0126 0.702637 104.581C0.702637 134.933 10.56 160.447 30.0013 180.426C49.684 200.779 74.876 211.101 104.869 211.101C124.175 211.101 141.768 206.401 157.161 197.134C169.751 189.458 180.436 179.031 188.92 166.147L189.593 165.126H177.032L176.833 165.386Z" fill="white"></path> <path d="M112.251 85.8996C113.213 91.2316 113.482 90.8463 114.114 88.7876C114.725 86.717 115.35 84.6636 115.35 80.9556C115.35 77.237 112.406 75.9143 112.406 75.9143C112.906 77.3396 111.026 79.1636 112.251 85.8996Z" fill="white"></path> <path d="M126.927 133.919C124.171 130.02 125.844 128.856 125.436 120.739C125.139 115.03 119.183 107.284 119.183 107.284C119.183 107.284 123.984 116.079 122.608 123.672C121.215 131.28 127.251 134.388 126.927 133.919Z" fill="white"></path> <path d="M101.859 90.5285C96.4246 92.3205 93.73 92.7151 91.7113 92.8125C91.7113 92.8125 94.2033 93.9071 97.2526 94.2378C97.2966 94.3205 97.3886 94.4845 97.4993 94.6885C98.4086 96.3471 101.062 101.29 105.423 101.531C108.042 101.672 110.109 101.004 111.522 100.008C111.889 99.7565 112.217 99.4765 112.471 99.1765C112.574 99.3178 112.667 99.4645 112.766 99.6018C113.81 101.123 115.421 102.97 118.019 105.226C118.138 105.31 115.717 101.464 114.194 98.1805C113.721 97.1711 113.331 96.2165 113.131 95.4418C112.681 93.7151 111.498 92.3005 109.631 91.5245C107.973 90.8338 104.55 89.6471 101.859 90.5285Z" fill="white"></path> <path d="M125.034 81.1587C124.48 75.7987 122.144 71.5374 118.983 67.828C115.823 64.124 108.396 58.8974 109.23 58.3507C110.052 57.8014 111.699 57.9347 111.699 57.9347C111.699 57.9347 106.616 55.0507 103.315 55.3254C100.012 55.6 100.562 56.564 100.562 56.564C100.562 56.564 103.038 55.6 104.83 56.564C106.616 57.524 105.916 58.2107 107.852 59.72C109.779 61.2334 116.292 66.192 119.258 70.1627C123.239 75.5267 121.595 81.5747 127.504 91.7387C127.504 91.7387 125.578 86.5187 125.034 81.1587Z" fill="white"></path> <path d="M146.897 90.1118C146.897 90.1118 146.628 84.2878 143.997 80.1638C141.361 76.0385 138.749 67.2531 137.222 67.3905C137.222 67.3905 137.968 72.0225 142.293 78.8971C146.628 85.7678 144.834 86.7731 146.897 90.1118Z" fill="white"></path> <path d="M78.3724 147.361C73.751 145.493 63.483 146.187 57.783 132.171C53.2284 120.961 55.8897 111.303 55.8897 111.303C55.8897 111.303 51.799 120.646 56.323 134.513C60.8537 148.383 68.143 146.975 74.8617 149.109C89.6044 153.791 88.591 154.074 93.4097 155.69C93.4097 155.69 86.6924 150.719 78.3724 147.361Z" fill="white"></path> <path d="M45.8762 147.055C55.0736 172.717 76.6016 180.09 76.6016 180.09C72.3136 177.457 54.9149 160.342 51.6576 152.086C39.0269 119.965 51.3656 92.3392 53.1136 88.7045C54.2162 90.8165 55.1536 93.0579 55.8082 95.6885C55.9989 96.7605 56.2069 97.8085 56.4149 98.7139C56.7789 101.089 56.9242 103.783 56.8042 106.921C56.8042 106.921 57.8042 104.297 58.0176 100.251C59.0362 96.0432 57.3042 88.7045 50.2376 70.9485C43.3336 53.6472 54.2642 44.8205 57.6362 43.0192C64.5069 39.7152 72.2242 41.6006 75.3576 43.4419C78.8576 45.4952 81.3682 47.4565 83.3149 50.2406C86.1949 54.3619 87.5109 56.2205 89.3709 59.1005C89.3709 59.1005 88.8042 57.8432 86.8749 53.8125C87.6576 53.4365 89.7829 52.6352 93.7989 52.5992C116.127 52.4352 134.092 62.0619 134.092 62.0619C132.64 60.8579 131.096 59.7619 129.472 58.7686C129.296 57.6486 129.119 54.7725 130.858 50.9312C133.424 45.3405 138.67 36.0059 141.768 35.8899C145.184 36.2672 148.663 45.5512 148.852 54.7805C149.052 64.8832 144.099 78.0699 144.099 78.0699C144.099 78.0699 148.438 71.0632 150.288 65.2925C152.142 59.5165 152.142 58.0806 151.318 51.2752C150.522 44.6979 145.755 34.9939 143.692 34.5819C141.635 34.1672 138.124 37.0499 138.124 37.0499C138.124 37.0499 137.84 37.1846 138.124 37.0912C134.899 39.3526 129.544 43.4192 126.066 47.1952C122.17 51.4046 120.378 53.5179 119.834 54.1739C104.671 48.5845 87.6789 48.5845 84.2042 48.6606C80.4162 42.7406 72.6309 36.4312 62.5709 38.0832C52.7989 39.6806 48.6042 45.9912 46.4922 49.2139C44.3282 52.4966 39.5922 63.9006 46.0802 76.6232C47.4216 79.2379 48.8162 81.4779 50.1522 83.6325C48.8336 86.4032 35.0162 116.747 45.8762 147.055Z" fill="white"></path> <path d="M180.963 133.825C180.963 133.844 180.967 133.861 180.967 133.88C180.967 133.88 180.963 133.861 180.963 133.825Z" fill="white"></path> <path d="M141.556 164.161C141.117 165.785 139.576 169.98 135.103 171.503C129.512 173.424 123.935 174.681 119.196 172.313C116.487 170.959 113.08 168.131 110.907 166.219C114.007 166.688 117.001 166.581 119.687 166.635C127.136 166.772 133.952 162.049 137.057 160.935C138.272 160.5 139.772 162.471 141.556 164.161ZM149.159 108.005C178.992 116.193 180.869 132.781 180.964 133.825C180.296 115.008 154.173 106.119 149.349 105.293C149.392 104.52 149.451 103.761 149.489 103C149.783 97.3932 146.384 94.2905 146.384 94.2905C146.384 94.2905 147.716 97.9865 148.292 100.495C148.827 102.705 147.503 110.772 147.195 112.657C145.853 110.404 144.205 107.939 142.131 105.067C140.9 103.349 140.06 101.779 139.515 100.305C139.979 100.423 143.52 101.108 144.665 98.3025C145.773 95.5892 145.587 93.1265 144.915 92.4359C146.269 92.3065 147.215 92.7945 147.215 92.7945C147.215 92.7945 146.541 91.8892 145.211 91.5105C141.945 90.5732 138.608 94.5999 138.608 94.7425L138.525 94.9105C138.515 91.8025 139.259 88.8292 139.259 85.2839C139.259 78.2692 132.664 76.6225 132.664 76.6225C134.509 78.2159 138.425 79.0985 136.779 89.1959C135.131 99.2985 139.457 103.423 145.232 113.937C150.312 123.204 153.641 134.543 154.359 137.105C153.733 137.017 151.679 138.425 148.529 140.323C144.405 142.788 143.787 138.867 140.285 138.46C136.779 138.057 136.572 143.209 132.441 139.088C128.32 134.955 128.123 135.575 127.091 136.189C126.065 136.813 126.879 140.527 128.739 142.173C130.596 143.824 132.036 144.444 136.168 145.883C140.032 147.232 138.983 149.317 139.021 150.423C138.425 152.543 137.319 155.668 135.487 158.447C132.28 163.328 119.687 166.635 106.516 161.541C94.736 157.004 96.2 148.989 91.3267 141.868C86.4533 134.747 78.3987 132.503 77.2693 132.121C77.2693 132.121 87.396 137.185 91.7013 147.864C96.8493 160.603 103.361 164.661 109.592 165.961C110.769 168.024 113.407 171.459 118.824 173.773C126.959 177.248 136.793 173.424 138.829 171.681C140.425 170.321 142.431 166.94 143.232 165.533C144.003 166.051 144.816 166.396 145.667 166.417C148.353 166.476 153.952 153.313 154.145 147.507C154.323 141.695 155.019 138.597 155.019 138.597C154.145 140.797 154.425 140.492 151.805 152.025C149.888 160.443 146.98 162.856 145.296 163.421C143.604 163.984 142.484 161.912 140.417 159.111C139.64 158.044 140.493 153.464 141.583 150.512C142.528 149.76 143.709 149.131 144.816 148.153C146.668 146.497 146.916 144.719 149.349 144.232C151.416 143.824 154.089 139.088 154.509 137.636C154.588 137.345 154.571 137.185 154.425 137.123C152.912 126.652 152.068 121.363 148.075 114.197L148.605 114.821C148.605 114.821 148.884 111.772 149.159 108.005Z" fill="white"></path> <path d="M132.965 58.621C139.559 61.2823 141.214 72.1036 141.214 72.1036C142.307 61.849 134.509 53.8463 135.545 53.709C140.935 52.9836 144.485 49.3116 144.154 49.4383C138.359 51.6956 136.731 49.9303 136.731 49.9303L141.254 38.0823C139.359 40.8356 128.309 56.7556 132.965 58.621Z" fill="white"></path> <path d="M85.7591 63.438C88.9617 56.0114 77.4164 46.842 71.5391 44.5754C65.6657 42.306 57.6364 44.9847 54.4284 48.3874C54.4284 48.3874 67.1177 42.714 76.0791 50.6527C76.0791 50.6527 86.2497 57.0327 75.2084 70.6247C74.7084 66.898 74.6364 61.2727 74.6364 61.2727L73.0377 65.602C69.6257 57.17 62.1084 59.902 62.1084 59.902C68.0337 60.3594 70.0871 66.286 70.0871 66.286C68.2591 61.9554 59.6017 64.4594 59.6017 64.4594C65.0097 63.9007 70.1004 71.5634 71.7897 74.3874C69.6217 76.5247 66.9497 78.8127 63.7004 81.2647C63.7004 81.2647 82.5631 70.854 85.7591 63.438Z" fill="white"></path> </svg> 