<?xml version="1.0" encoding="UTF-8"?> <svg xmlns="http://www.w3.org/2000/svg" width="156" height="53" viewBox="0 0 156 53" fill="none"> <path d="M44.5369 32.8918C44.5369 32.8962 44.5374 32.9007 44.5374 32.9046C44.5374 32.9046 44.5369 32.9007 44.5369 32.8918Z" fill="#013B4A"></path> <path d="M43.5161 40.6891C38.9453 46.6628 32.8422 49.6918 25.3743 49.6918C18.8709 49.6918 13.3827 47.2706 9.06558 42.4978C4.90418 37.8747 2.79456 32.2354 2.79456 25.7371C2.79456 19.4376 4.97064 13.9505 9.26396 9.42988C13.679 4.79156 19.1002 2.43942 25.3743 2.43942C32.8807 2.43942 39.1081 5.62465 43.8824 11.9068L43.9316 11.9708H47.1443L46.986 11.7206C44.8652 8.38217 42.132 5.65965 38.858 3.62665C34.9543 1.22022 30.4439 1.00455e-05 25.4519 1.00455e-05C18.5051 1.00455e-05 12.7414 2.36737 7.83268 7.23502C2.63525 12.4061 0 18.6076 0 25.666C0 33.1649 2.43484 39.4689 7.23907 44.405C12.1016 49.4335 18.326 51.9835 25.736 51.9835C30.5058 51.9835 34.8529 50.8227 38.6561 48.5329C41.7667 46.6364 44.4065 44.0605 46.5025 40.8773L46.6689 40.6247H43.5653L43.5161 40.6891Z" fill="#013B4A"></path> <path d="M27.5606 21.0504C27.7975 22.368 27.8645 22.2731 28.0202 21.7637C28.1714 21.2528 28.3257 20.7449 28.3257 19.8291C28.3257 18.9103 27.5981 18.5836 27.5981 18.5836C27.7219 18.9357 27.2572 19.3862 27.5606 21.0504Z" fill="#013B4A"></path> <path d="M31.1862 32.9144C30.5053 31.9514 30.9183 31.6637 30.8174 29.6581C30.7443 28.2476 29.2729 26.3339 29.2729 26.3339C29.2729 26.3339 30.4587 28.5064 30.1187 30.3831C29.7747 32.2629 31.2659 33.0306 31.1862 32.9144Z" fill="#013B4A"></path> <path d="M24.9927 22.194C23.6503 22.6369 22.9841 22.7338 22.4854 22.7582C22.4854 22.7582 23.1008 23.0291 23.8542 23.1103C23.8649 23.1311 23.8877 23.1717 23.9156 23.2219C24.1394 23.6319 24.7954 24.8526 25.8725 24.9124C26.5199 24.9475 27.0308 24.7821 27.3799 24.536C27.4702 24.4741 27.5514 24.4051 27.6148 24.3305C27.6397 24.3655 27.663 24.402 27.6874 24.4355C27.9446 24.8115 28.3434 25.2676 28.9852 25.8252C29.0146 25.846 28.4164 24.8957 28.04 24.0844C27.9228 23.8353 27.8269 23.5994 27.7772 23.4076C27.6666 22.9814 27.3738 22.6318 26.9126 22.4396C26.5032 22.2691 25.6569 21.9763 24.9927 22.194Z" fill="#013B4A"></path> <path d="M30.7186 19.8794C30.5816 18.5552 30.0042 17.5019 29.2234 16.5856C28.4425 15.6703 26.6074 14.3791 26.8139 14.2441C27.0163 14.1081 27.4237 14.1411 27.4237 14.1411C27.4237 14.1411 26.168 13.4288 25.3527 13.4968C24.5363 13.5648 24.6723 13.8027 24.6723 13.8027C24.6723 13.8027 25.2837 13.5648 25.7261 13.8027C26.168 14.0402 25.995 14.2096 26.4735 14.5825C26.9489 14.9565 28.5582 16.1817 29.2914 17.1625C30.2751 18.4877 29.8682 19.9819 31.3284 22.4933C31.3284 22.4933 30.8525 21.2036 30.7186 19.8794Z" fill="#013B4A"></path> <path d="M36.1202 22.0913C36.1202 22.0913 36.0532 20.6524 35.4038 19.6331C34.7518 18.6138 34.1064 16.4433 33.73 16.4773C33.73 16.4773 33.9131 17.6214 34.9827 19.3206C36.0532 21.0177 35.6103 21.2663 36.1202 22.0913Z" fill="#013B4A"></path> <path d="M19.1898 36.2357C18.0477 35.774 15.5109 35.946 14.1025 32.4828C12.9776 29.7131 13.6347 27.3269 13.6347 27.3269C13.6347 27.3269 12.6245 29.6354 13.7417 33.0612C14.8615 36.4884 16.6626 36.1409 18.3222 36.6675C21.9646 37.8243 21.7149 37.8943 22.9047 38.2936C22.9047 38.2936 21.2451 37.0653 19.1898 36.2357Z" fill="#013B4A"></path> <path d="M11.1614 36.1599C13.4339 42.5 18.752 44.3214 18.752 44.3214C17.6927 43.671 13.3938 39.4426 12.5891 37.403C9.4688 29.4668 12.517 22.6412 12.9488 21.7432C13.2218 22.2653 13.4536 22.8188 13.615 23.4692C13.6627 23.7336 13.7134 23.9928 13.7652 24.2161C13.855 24.8031 13.8905 25.4693 13.8611 26.2445C13.8611 26.2445 14.1086 25.5956 14.1609 24.5961C14.4126 23.5565 13.9843 21.7432 12.2385 17.3565C10.5333 13.082 13.2334 10.9008 14.067 10.4559C15.7642 9.6395 17.6709 10.1053 18.4446 10.5604C19.3101 11.0677 19.9301 11.5523 20.4106 12.2403C21.1225 13.2585 21.4472 13.7177 21.9073 14.429C21.9073 14.429 21.7673 14.1185 21.2909 13.1226C21.4842 13.0297 22.0088 12.8318 23.0012 12.8227C28.5178 12.7826 32.9562 15.1606 32.9562 15.1606C32.598 14.8633 32.216 14.5929 31.8146 14.3473C31.7715 14.0703 31.7274 13.36 32.1576 12.4107C32.7918 11.0297 34.0876 8.7232 34.8527 8.69428C35.697 8.78815 36.5565 11.0814 36.6037 13.362C36.6524 15.8578 35.4286 19.1161 35.4286 19.1161C35.4286 19.1161 36.5007 17.3849 36.9578 15.9592C37.4154 14.532 37.4154 14.1774 37.2125 12.496C37.0156 10.8709 35.838 8.47307 35.3286 8.37109C34.8203 8.26911 33.9527 8.98095 33.9527 8.98095C33.9527 8.98095 33.8827 9.01443 33.9527 8.9916C33.1556 9.55021 31.8324 10.5548 30.9734 11.4878C30.011 12.5279 29.568 13.05 29.4336 13.2124C25.6877 11.8313 21.4888 11.8313 20.6308 11.8496C19.6947 10.3874 17.7718 8.82823 15.2857 9.23666C12.8717 9.63088 11.8352 11.1905 11.3131 11.9861C10.7788 12.7978 9.60833 15.6152 11.2121 18.7584C11.5429 19.4047 11.8879 19.9578 12.2177 20.4905C11.8915 21.1749 8.47792 28.6717 11.1614 36.1599Z" fill="#013B4A"></path> <path d="M34.8003 40.3865C34.6922 40.7879 34.3112 41.8244 33.2056 42.2004C31.8246 42.6752 30.4471 42.9858 29.2756 42.4008C28.6069 42.0664 27.7647 41.3673 27.2274 40.8949C27.994 41.0106 28.7337 40.9847 29.3973 40.9979C31.2381 41.0314 32.9215 39.865 33.6891 39.5895C33.9885 39.4819 34.3594 39.969 34.8003 40.3865ZM36.679 26.5121C44.0495 28.5355 44.5138 32.6335 44.5366 32.8917C44.3717 28.2423 37.918 26.0459 36.7257 25.8419C36.7364 25.6512 36.7506 25.4634 36.7602 25.2757C36.8328 23.8901 35.9936 23.124 35.9936 23.124C35.9936 23.124 36.3224 24.0367 36.4644 24.6567C36.5968 25.2026 36.2696 27.1956 36.1935 27.6613C35.8617 27.1048 35.4553 26.4959 34.9418 25.7861C34.6389 25.362 34.4304 24.9738 34.2959 24.6095C34.4106 24.639 35.2858 24.8079 35.5684 24.1149C35.8429 23.4446 35.7962 22.8363 35.6303 22.6653C35.9647 22.6339 36.1986 22.7541 36.1986 22.7541C36.1986 22.7541 36.0321 22.5304 35.7034 22.437C34.8962 22.2051 34.0717 23.2001 34.0717 23.2351L34.0509 23.2767C34.0494 22.509 34.2325 21.7744 34.2325 20.8982C34.2325 19.165 32.6034 18.7586 32.6034 18.7586C33.059 19.1518 34.0276 19.3705 33.6201 21.8652C33.2127 24.3609 34.2823 25.3802 35.709 27.9774C36.9642 30.2672 37.7866 33.0688 37.9632 33.702C37.8089 33.6802 37.3016 34.0277 36.5233 34.497C35.5045 35.1059 35.3513 34.1373 34.4862 34.0364C33.6201 33.9369 33.5689 35.2099 32.5491 34.1921C31.5303 33.1708 31.4816 33.3235 31.2264 33.4757C30.9732 33.63 31.1746 34.5473 31.6333 34.9537C32.093 35.3621 32.4481 35.5148 33.4695 35.8705C34.4238 36.2038 34.165 36.7188 34.1742 36.9923C34.0276 37.5159 33.7536 38.2881 33.301 38.9745C32.508 40.1805 29.3973 40.9979 26.1436 39.7391C23.2324 38.6184 23.5946 36.6381 22.3907 34.8786C21.1862 33.119 19.1963 32.5645 18.9172 32.4706C18.9172 32.4706 21.4196 33.7218 22.483 36.3601C23.7544 39.5073 25.3633 40.5098 26.9037 40.831C27.1939 41.3409 27.8458 42.1897 29.1837 42.7615C31.1944 43.62 33.6242 42.6752 34.1265 42.2445C34.5207 41.9086 35.0164 41.0735 35.2143 40.7254C35.4045 40.8533 35.606 40.9385 35.816 40.9441C36.4802 40.9583 37.8632 37.7061 37.9109 36.2718C37.9551 34.836 38.1265 34.0704 38.1265 34.0704C37.9109 34.6137 37.9804 34.5387 37.3325 37.388C36.8597 39.4677 36.1412 40.0638 35.7242 40.2039C35.3066 40.3429 35.0296 39.831 34.5187 39.1389C34.3264 38.8751 34.5375 37.7437 34.8074 37.0141C35.0413 36.8284 35.3325 36.6731 35.606 36.4316C36.0631 36.0222 36.1245 35.5828 36.7257 35.4626C37.2361 35.3621 37.8972 34.1921 38.0012 33.8329C38.021 33.7609 38.0159 33.7218 37.9804 33.7061C37.6055 31.119 37.3975 29.8126 36.4106 28.0419L36.5426 28.1966C36.5426 28.1966 36.6105 27.4427 36.679 26.5121Z" fill="#013B4A"></path> <path d="M32.6775 14.3107C34.3072 14.9683 34.7161 17.6421 34.7161 17.6421C34.986 15.1083 33.0591 13.1311 33.3148 13.0971C34.6466 12.918 35.5233 12.0103 35.4421 12.0423C34.0104 12.5999 33.608 12.1635 33.608 12.1635L34.7258 9.23656C34.2575 9.91642 31.5268 13.85 32.6775 14.3107Z" fill="#013B4A"></path> <path d="M21.0143 15.5011C21.8063 13.6659 18.9534 11.4006 17.5013 10.8404C16.0507 10.2798 14.0669 10.9419 13.2739 11.7826C13.2739 11.7826 16.4089 10.3807 18.6231 12.3417C18.6231 12.3417 21.136 13.9186 18.4079 17.2768C18.2841 16.356 18.2669 14.9663 18.2669 14.9663L17.8722 16.0358C17.0289 13.9526 15.171 14.6274 15.171 14.6274C16.6352 14.7405 17.1426 16.2048 17.1426 16.2048C16.691 15.1348 14.5525 15.7537 14.5525 15.7537C15.8884 15.6152 17.1456 17.5087 17.5637 18.2063C17.0279 18.7345 16.3678 19.2997 15.5652 19.9055C15.5652 19.9055 20.2253 17.3332 21.0143 15.5011Z" fill="#013B4A"></path> <path d="M49.6426 43.398C49.6426 45.2626 50.2236 46.8288 51.3874 48.0972C52.5818 49.4093 54.1029 50.0653 55.937 50.0653C57.7711 50.0653 59.2785 49.3951 60.4566 48.0668C61.59 46.7842 62.1562 45.2179 62.1562 43.3686C62.1562 41.4594 61.5758 39.8784 60.3972 38.6247C59.1887 37.3579 57.6377 36.7155 55.7416 36.7155C53.9689 36.7155 52.5067 37.402 51.3281 38.7587C50.2093 40.057 49.6426 41.5933 49.6426 43.398ZM47.4346 43.4285C47.4346 41.0718 48.2245 39.0428 49.8212 37.3279C51.4463 35.5674 53.4311 34.6876 55.7726 34.6876C58.145 34.6876 60.1582 35.5222 61.8437 37.1777C63.5297 38.8338 64.3643 40.848 64.3643 43.2194C64.3643 45.6355 63.5743 47.7091 61.9777 49.4245C60.3526 51.1998 58.3383 52.079 55.937 52.079C53.5503 52.079 51.5371 51.2444 49.8963 49.5589C48.2555 47.8725 47.4346 45.8293 47.4346 43.4285Z" fill="#013B4A"></path> <path d="M67.9157 52.0801H65.8726V36.8973H63.6782V35.0626H65.7828V34.6151C65.7828 31.1996 67.5722 29.4994 71.1532 29.4994H71.3465V31.3929C70.1238 31.4091 69.2582 31.6471 68.7361 32.0946C68.1694 32.5872 67.8848 33.4218 67.8848 34.6151V35.0626H71.3465V36.8973H67.9157V52.0801Z" fill="#013B4A"></path> <path d="M75.0207 52.0801H72.9775V36.8973H70.7842V35.0626H72.8882V34.6151C72.8882 31.1996 74.6777 29.4994 78.2582 29.4994H78.4515V31.3929C77.2292 31.4091 76.3632 31.6471 75.8411 32.0946C75.2744 32.5872 74.9902 33.4218 74.9902 34.6151V35.0626H77.7178V36.8973H75.0207V52.0801Z" fill="#013B4A"></path> <path d="M91.6408 42.2944C90.8508 38.5957 88.7326 36.7453 85.2861 36.7453C83.6468 36.7453 82.2733 37.2674 81.1703 38.3126C80.1105 39.3121 79.4539 40.6393 79.217 42.2944H91.6408ZM93.9686 44.0701H79.1561C79.29 45.8449 79.9177 47.2767 81.0653 48.3959C82.2145 49.5136 83.6757 50.0656 85.4505 50.0656C88.0461 50.0656 89.9112 48.8581 91.0594 46.4268H93.4455C91.8798 50.2006 89.2405 52.0794 85.5119 52.0794C83.109 52.0794 81.0952 51.2295 79.4402 49.5436C77.7994 47.8586 76.979 45.8002 76.979 43.3984C76.979 40.8778 77.7842 38.8189 79.3956 37.1933C81.0202 35.5677 83.0801 34.762 85.6012 34.762C88.1806 34.762 90.2395 35.6565 91.7758 37.447C93.238 39.1472 93.9686 41.3106 93.9686 43.9205V44.0701Z" fill="#013B4A"></path> <path d="M109.501 42.2944C108.711 38.5957 106.593 36.7453 103.147 36.7453C101.507 36.7453 100.134 37.2674 99.0312 38.3126C97.9708 39.3121 97.3148 40.6393 97.0768 42.2944H109.501ZM111.829 44.0701H97.0165C97.1499 45.8449 97.7775 47.2767 98.9252 48.3959C100.075 49.5136 101.536 50.0656 103.311 50.0656C105.907 50.0656 107.771 48.8581 108.919 46.4268H111.305C109.739 50.2006 107.101 52.0794 103.372 52.0794C100.969 52.0794 98.9556 51.2295 97.3001 49.5436C95.6593 47.8586 94.8389 45.8002 94.8389 43.3984C94.8389 40.8778 95.6446 38.8189 97.2554 37.1933C98.8805 35.5677 100.94 34.762 103.461 34.762C106.04 34.762 108.099 35.6565 109.636 37.447C111.097 39.1472 111.829 41.3106 111.829 43.9205V44.0701Z" fill="#013B4A"></path> <path d="M123.199 52.0571H113.414V29.5037H115.561V49.9536H123.199V52.0571Z" fill="#013B4A"></path> <path d="M136.503 42.2944C135.712 38.5957 133.594 36.7453 130.147 36.7453C128.508 36.7453 127.136 37.2674 126.032 38.3126C124.971 39.3121 124.316 40.6393 124.078 42.2944H136.503ZM138.831 44.0701H124.017C124.152 45.8449 124.778 47.2767 125.927 48.3959C127.076 49.5136 128.537 50.0656 130.312 50.0656C132.908 50.0656 134.773 48.8581 135.92 46.4268H138.307C136.741 50.2006 134.102 52.0794 130.372 52.0794C127.97 52.0794 125.958 51.2295 124.302 49.5436C122.661 47.8586 121.84 45.8002 121.84 43.3984C121.84 40.8778 122.646 38.8189 124.257 37.1933C125.882 35.5677 127.941 34.762 130.462 34.762C133.042 34.762 135.101 35.6565 136.637 37.447C138.099 39.1472 138.831 41.3106 138.831 43.9205V44.0701Z" fill="#013B4A"></path> <path d="M153.942 43.3088C153.942 41.6086 153.345 40.1017 152.152 38.8039C150.914 37.4766 149.467 36.8059 147.781 36.8059C145.947 36.8059 144.41 37.4766 143.202 38.8343C142.024 40.1322 141.428 41.7131 141.428 43.5772C141.428 45.3824 142.024 46.9182 143.232 48.1866C144.44 49.4545 145.947 50.0958 147.722 50.0958C149.497 50.0958 150.989 49.3951 152.198 48.008C153.361 46.6655 153.942 45.0993 153.942 43.3088ZM153.942 49.0217C152.54 51.0354 150.453 52.0497 147.661 52.0497C145.23 52.0497 143.232 51.2298 141.636 49.5879C140.041 47.9481 139.249 45.9192 139.249 43.4879C139.249 41.0119 140.069 38.9536 141.696 37.3122C143.321 35.6719 145.38 34.851 147.841 34.851C150.482 34.851 152.51 35.8515 153.942 37.8348V35.2097H156V51.6169H153.942V49.0217Z" fill="#013B4A"></path> </svg> 